<?xml version="1.0" encoding="utf-8"?>
<!-- Generator: Adobe Illustrator 24.1.1, SVG Export Plug-In . SVG Version: 6.00 Build 0)  -->
<svg version="1.1" id="Calque_1" xmlns="http://www.w3.org/2000/svg" xmlns:xlink="http://www.w3.org/1999/xlink" x="0px" y="0px"
	 viewBox="0 0 1920 555" style="enable-background:new 0 0 1920 555;" xml:space="preserve">
<style type="text/css">
	.st0{fill:#FFFFFF;}
</style>
<g>
	<path class="st0" d="M568.1,457v89.4h-35c-49.8,0-90.3-40.5-90.3-90.4V145.1c-1-8.6-8.3-15.1-17-15.1h-20.9V40.7H442
		c49.9,0,90.4,40.4,90.4,90.3v262.2l-0.3,1.7v44.8c0,9.5,7.8,17.3,17.3,17.3H568.1z"/>
	<polygon class="st0" points="532.4,393.2 532.4,394.8 532.1,394.8 	"/>
</g>
<path class="st0" d="M1160.7,125.2h-2c-2.6,5.1-6.5,9.4-11.9,12.7c-5.4,3.4-12.6,5.1-21.6,5.1c-7.4,0-14.1-1.7-20-4.9
	c-5.9-3.3-10.6-8-13.9-14.2c-3.4-6.2-5-13.5-5-22V42h18.8v58.8c0,8.9,2.2,15.5,6.7,19.9c4.4,4.4,10.8,6.6,19,6.6
	c9,0,16.2-3,21.6-9.1c5.4-6.1,8.1-14.6,8.1-25.6V42h19v99.2h-18.6V125.2z"/>
<path class="st0" d="M1226.9,55.3c1.9-4.8,4.8-8.3,8.8-10.5c4-2.2,9.3-3.2,16.1-3.2h12.3v16.4h-15.6c-7.3,0-13,2-17.1,5.9
	s-6.2,9.8-6.2,17.6v59.8h-19V42h18.6v13.3H1226.9z"/>
<path class="st0" d="M1299.6,57.3h2c7.4-12.1,19.2-18.2,35.3-18.2c8.5,0,16.2,2.2,23.2,6.5c7,4.3,12.6,10.5,16.8,18.5
	c4.2,8,6.3,17.2,6.3,27.6c0,10.4-2.1,19.5-6.3,27.5c-4.2,7.9-9.8,14.1-16.8,18.4c-7,4.3-14.7,6.5-23.2,6.5c-16,0-27.9-6.2-35.7-18.6
	h-2v15.7h-18.6V-0.2h19V57.3z M1308.4,65.4c-6,6.5-9,15.2-9,26.3c0,10.9,3,19.6,9,26.1c6,6.5,13.8,9.7,23.5,9.7
	c9.6,0,17.3-3.2,23.2-9.6c5.9-6.4,8.9-15.1,8.9-26.2c0-11.2-3-20-8.9-26.4c-5.9-6.4-13.7-9.6-23.2-9.6
	C1322.3,55.7,1314.4,58.9,1308.4,65.4z"/>
<path class="st0" d="M1416.1,47.3c7.2-5.5,16.7-8.2,28.6-8.2c12.8,0,22.8,3.3,30.1,9.9c7.3,6.6,10.9,15.8,10.9,27.7v64.4h-18.2
	v-13.3h-2.4c-5.9,10.8-16.1,16.2-30.5,16.2c-10.6,0-19.4-2.8-26.3-8.4s-10.3-13.2-10.3-22.9c0-9.8,3.5-17.4,10.4-22.7
	c6.9-5.3,16-8,27.2-8h31.5v-6.5c0-6.3-1.9-11.4-5.8-15.1c-3.8-3.8-9.5-5.7-16.9-5.7c-7.1,0-12.8,1.8-17.1,5.4s-7,8.3-8.4,14.2
	l-17.8-5.7C1403.9,59.9,1408.9,52.8,1416.1,47.3z M1422.5,124c3.7,3,8.8,4.4,15.2,4.4c8.7,0,15.8-2.6,21.2-7.9
	c5.4-5.2,8.1-12.3,8.1-21.2v-2h-30.5c-5.9,0-10.7,1.3-14.2,3.9c-3.6,2.6-5.4,6.3-5.4,11C1417,117.1,1418.8,121,1422.5,124z"/>
<path class="st0" d="M1530.1,57.9h2c2.6-5.1,6.5-9.4,11.9-12.7c5.4-3.4,12.6-5,21.6-5c7.4,0,14.1,1.6,20,4.9
	c5.9,3.3,10.6,8,13.9,14.2c3.4,6.2,5.1,13.5,5.1,22v59.8h-18.8V82.4c0-8.9-2.2-15.5-6.7-19.9c-4.4-4.4-10.8-6.6-19-6.6
	c-9,0-16.2,3-21.6,9.1c-5.4,6.1-8.1,14.6-8.1,25.6v50.5h-19V42h18.6V57.9z"/>
<path class="st0" d="M1105.4,343.1h-19V201.7h19V343.1z"/>
<path class="st0" d="M1132.6,266.1c4.3-7.9,10.3-14.1,18.1-18.5c7.7-4.4,16.6-6.6,26.6-6.6s18.8,2.2,26.6,6.6
	c7.7,4.4,13.8,10.5,18.2,18.5s6.6,17.1,6.6,27.5c0,10.4-2.2,19.5-6.6,27.4c-4.4,7.9-10.4,14-18.2,18.4c-7.7,4.4-16.6,6.6-26.6,6.6
	c-9.8,0-18.6-2.2-26.5-6.6c-7.8-4.4-13.9-10.5-18.2-18.4c-4.3-7.9-6.5-17-6.5-27.4C1126.2,283.2,1128.3,274.1,1132.6,266.1z
	 M1153.9,319.5c5.9,6.4,13.6,9.6,23.3,9.6s17.5-3.2,23.4-9.7c5.9-6.5,8.9-15.1,8.9-25.8c0-10.8-3-19.4-8.9-25.9
	c-5.9-6.5-13.7-9.8-23.4-9.8c-9.6,0-17.3,3.3-23.2,9.9c-5.9,6.6-8.9,15.2-8.9,25.8C1145.2,304.5,1148.1,313.2,1153.9,319.5z"/>
<path class="st0" d="M1345.7,243.9v93.9c0,15.3-4.6,27.3-13.8,35.7c-9.2,8.5-21.6,12.7-37.1,12.7c-13.7,0-24.8-3.2-33.1-9.5
	c-8.3-6.3-13.9-13.8-16.8-22.4l17.2-7.1c2,6.6,5.7,12,11,16.4c5.3,4.3,12.4,6.5,21.3,6.5c10,0,17.8-2.8,23.6-8.5
	c5.8-5.7,8.7-13.9,8.7-24.6v-11.7h-2c-7.7,12-19.5,18-35.5,18c-8.3,0-16.1-2.1-23.1-6.4c-7.1-4.2-12.7-10.2-16.8-18
	c-4.1-7.7-6.2-16.7-6.2-26.8c0-10,2.1-18.8,6.2-26.7c4.1-7.8,9.7-13.8,16.8-18.1c7.1-4.2,14.8-6.4,23.1-6.4
	c16.3,0,28.3,6.3,35.9,18.8h2v-16H1345.7z M1317.8,317.4c6.1-6.3,9.1-14.7,9.1-25.2s-3-18.9-9.1-25.1c-6.1-6.3-13.9-9.4-23.4-9.4
	c-9.6,0-17.3,3.1-23.2,9.4c-5.9,6.3-8.9,14.6-8.9,25.1c0,10.6,3,19.1,8.9,25.3c5.9,6.3,13.7,9.4,23.2,9.4
	C1304,326.9,1311.8,323.8,1317.8,317.4z"/>
<path class="st0" d="M1371.8,203.4c2.8-2.8,6.2-4.1,10.4-4.1c4.3,0,7.8,1.4,10.6,4.1c2.8,2.8,4.1,6.2,4.1,10.4
	c0,4.2-1.4,7.6-4.1,10.3c-2.8,2.7-6.3,4-10.6,4c-4.2,0-7.6-1.3-10.4-4c-2.8-2.7-4.1-6.1-4.1-10.3
	C1367.7,209.7,1369.1,206.2,1371.8,203.4z M1391.7,343.1h-19v-99.2h19V343.1z"/>
<path class="st0" d="M1427.1,248.9c6.9-5.2,16.2-7.8,27.9-7.8c10.9,0,19.9,2.5,27.1,7.6c7.1,5.1,11.8,11.9,13.9,20.7l-17.4,5
	c-2.6-12.2-10.4-18.4-23.6-18.4c-6.1,0-10.8,1.2-14.3,3.5c-3.5,2.4-5.3,5.6-5.3,9.8c0,4,1.6,7.2,4.7,9.4c3.2,2.2,7.8,3.9,14,4.9
	l8.5,1.2c12.1,2.2,21.3,5.4,27.6,9.6c6.3,4.2,9.4,10.9,9.4,20.1c0,9.8-3.7,17.5-11,23c-7.3,5.5-17.2,8.3-29.6,8.3
	c-12.8,0-23.3-2.9-31.5-8.8c-8.2-5.9-13.2-14.4-14.9-25.7l17.8-4.4c2.7,16,12.2,24,28.7,24c6.9,0,12.3-1.4,16.3-4.1
	c4-2.8,6-6.4,6-11c0-4.2-1.8-7.4-5.2-9.6c-3.5-2.2-8.9-3.9-16.2-5.1l-8.5-1.4c-10.8-1.9-19.2-5.1-25.3-9.7
	c-6.1-4.6-9.2-11.1-9.2-19.6C1416.8,261.2,1420.2,254.1,1427.1,248.9z"/>
<path class="st0" d="M1536.3,243.9V210h19v33.9h30.7v15.5h-30.7v62c0,4,1.9,6.1,5.7,6.1h21.2v15.5h-27.5c-5.5,0-10-1.7-13.3-5
	c-3.4-3.4-5.1-7.9-5.1-13.5v-65h-28.7v-15.5H1536.3z"/>
<path class="st0" d="M1605.3,203.4c2.8-2.8,6.2-4.1,10.4-4.1c4.3,0,7.8,1.4,10.6,4.1c2.8,2.8,4.1,6.2,4.1,10.4
	c0,4.2-1.4,7.6-4.1,10.3c-2.8,2.7-6.3,4-10.6,4c-4.2,0-7.6-1.3-10.4-4c-2.8-2.7-4.1-6.1-4.1-10.3
	C1601.1,209.7,1602.5,206.2,1605.3,203.4z M1625.2,343.1h-19v-99.2h19V343.1z"/>
<path class="st0" d="M1652.8,266.4c4.6-8,10.8-14.2,18.6-18.7c7.8-4.4,16.5-6.7,26-6.7c12.9,0,23.6,3.6,32,10.7
	c8.4,7.1,13.6,16.2,15.7,27.3l-18.6,3.8c-0.8-7.4-3.8-13.4-8.9-18.1c-5.1-4.6-11.8-7-20-7c-6.2,0-11.7,1.5-16.7,4.4
	c-4.9,3-8.8,7.2-11.6,12.6c-2.8,5.5-4.2,11.7-4.2,18.7c0,7,1.4,13.2,4.2,18.6c2.8,5.4,6.7,9.6,11.7,12.5c5,3,10.5,4.4,16.6,4.4
	c8.5,0,15.2-2.3,20.2-6.8c5-4.5,8.1-10.7,9.5-18.5l18.4,4.2c-2.6,11.3-8,20.4-16.3,27.4c-8.3,6.9-19,10.4-32,10.4
	c-9.6,0-18.2-2.2-26-6.7c-7.8-4.4-14-10.7-18.6-18.7c-4.6-8-6.9-17-6.9-27C1646,283.5,1648.3,274.4,1652.8,266.4z"/>
<path class="st0" d="M1094.7,450.8c6.9-5.2,16.2-7.8,27.9-7.8c10.9,0,19.9,2.5,27.1,7.6c7.1,5.1,11.8,11.9,13.9,20.7l-17.4,5
	c-2.6-12.2-10.4-18.4-23.6-18.4c-6.1,0-10.8,1.2-14.3,3.5c-3.5,2.4-5.3,5.6-5.3,9.8c0,4,1.6,7.2,4.7,9.4c3.2,2.2,7.8,3.9,14,4.9
	l8.5,1.2c12.1,2.2,21.3,5.4,27.6,9.6c6.3,4.2,9.4,10.9,9.4,20.1c0,9.8-3.7,17.5-11,23c-7.3,5.5-17.2,8.3-29.6,8.3
	c-12.8,0-23.3-2.9-31.5-8.8c-8.2-5.9-13.2-14.4-14.9-25.7l17.8-4.4c2.7,16,12.2,24,28.7,24c6.9,0,12.3-1.4,16.3-4.1
	c4-2.8,6-6.4,6-11c0-4.2-1.8-7.4-5.2-9.6c-3.5-2.2-8.9-3.9-16.2-5.1l-8.5-1.4c-10.8-1.9-19.2-5.1-25.3-9.7
	c-6.1-4.6-9.2-11.1-9.2-19.6C1084.4,463.2,1087.8,456,1094.7,450.8z"/>
<path class="st0" d="M1188,468.1c4.3-7.9,10.3-14.1,18.1-18.5c7.7-4.4,16.6-6.6,26.6-6.6s18.8,2.2,26.6,6.6
	c7.7,4.4,13.8,10.5,18.2,18.5c4.4,7.9,6.6,17.1,6.6,27.5c0,10.4-2.2,19.5-6.6,27.4c-4.4,7.9-10.4,14-18.2,18.4
	c-7.7,4.4-16.6,6.6-26.6,6.6c-9.8,0-18.6-2.2-26.5-6.6c-7.8-4.4-13.9-10.5-18.2-18.4c-4.3-7.9-6.5-17-6.5-27.4
	C1181.5,485.2,1183.7,476,1188,468.1z M1209.3,521.5c5.9,6.4,13.6,9.6,23.3,9.6s17.5-3.2,23.4-9.7c5.9-6.5,8.9-15.1,8.9-25.8
	c0-10.8-3-19.4-8.9-25.9c-5.9-6.5-13.7-9.8-23.4-9.8c-9.6,0-17.3,3.3-23.2,9.9c-5.9,6.6-8.9,15.2-8.9,25.8
	C1200.5,506.4,1203.4,515.1,1209.3,521.5z"/>
<path class="st0" d="M1323.7,545h-19V403.7h19V545z"/>
<path class="st0" d="M1425,529.1h-2c-2.6,5.1-6.5,9.4-11.9,12.7c-5.4,3.4-12.6,5.1-21.6,5.1c-7.4,0-14.1-1.7-20-4.9
	c-5.9-3.3-10.6-8-13.9-14.2c-3.4-6.2-5-13.5-5-22v-59.8h18.8v58.8c0,8.9,2.2,15.5,6.7,19.9c4.4,4.4,10.8,6.6,19,6.6
	c9,0,16.2-3,21.6-9.1c5.4-6.1,8.1-14.6,8.1-25.6v-50.5h19V545H1425V529.1z"/>
<path class="st0" d="M1487.4,445.9v-33.9h19v33.9h30.7v15.5h-30.7v62c0,4,1.9,6.1,5.7,6.1h21.2V545h-27.5c-5.5,0-10-1.7-13.3-5
	c-3.4-3.4-5.1-7.9-5.1-13.5v-65h-28.7v-15.5H1487.4z"/>
<path class="st0" d="M1556.4,405.4c2.8-2.8,6.2-4.1,10.4-4.1c4.3,0,7.8,1.4,10.6,4.1c2.8,2.8,4.1,6.2,4.1,10.4
	c0,4.2-1.4,7.6-4.1,10.3c-2.8,2.7-6.3,4-10.6,4c-4.2,0-7.6-1.3-10.4-4c-2.8-2.7-4.1-6.1-4.1-10.3
	C1552.3,411.6,1553.6,408.1,1556.4,405.4z M1576.3,545h-19v-99.2h19V545z"/>
<path class="st0" d="M1603.6,468.1c4.3-7.9,10.3-14.1,18.1-18.5c7.7-4.4,16.6-6.6,26.6-6.6s18.8,2.2,26.6,6.6
	c7.7,4.4,13.8,10.5,18.2,18.5c4.4,7.9,6.6,17.1,6.6,27.5c0,10.4-2.2,19.5-6.6,27.4c-4.4,7.9-10.4,14-18.2,18.4
	c-7.7,4.4-16.6,6.6-26.6,6.6c-9.8,0-18.6-2.2-26.5-6.6c-7.8-4.4-13.9-10.5-18.2-18.4c-4.3-7.9-6.5-17-6.5-27.4
	C1597.1,485.2,1599.2,476,1603.6,468.1z M1624.9,521.5c5.9,6.4,13.6,9.6,23.3,9.6s17.5-3.2,23.4-9.7c5.9-6.5,8.9-15.1,8.9-25.8
	c0-10.8-3-19.4-8.9-25.9c-5.9-6.5-13.7-9.8-23.4-9.8c-9.6,0-17.3,3.3-23.2,9.9c-5.9,6.6-8.9,15.2-8.9,25.8
	C1616.1,506.4,1619,515.1,1624.9,521.5z"/>
<path class="st0" d="M1738.9,461.8h2c2.6-5.1,6.5-9.4,11.9-12.7c5.4-3.4,12.6-5,21.6-5c7.4,0,14.1,1.6,20,4.9
	c5.9,3.3,10.6,8,13.9,14.2c3.4,6.2,5.1,13.5,5.1,22V545h-18.8v-58.8c0-8.9-2.2-15.5-6.7-19.9c-4.4-4.4-10.8-6.6-19-6.6
	c-9,0-16.2,3-21.6,9.1c-5.4,6.1-8.1,14.6-8.1,25.6V545h-19v-99.2h18.6V461.8z"/>
<path class="st0" d="M1847.5,450.8c6.9-5.2,16.2-7.8,27.9-7.8c10.9,0,19.9,2.5,27.1,7.6c7.1,5.1,11.8,11.9,13.9,20.7l-17.4,5
	c-2.6-12.2-10.4-18.4-23.6-18.4c-6.1,0-10.8,1.2-14.3,3.5c-3.5,2.4-5.3,5.6-5.3,9.8c0,4,1.6,7.2,4.7,9.4c3.2,2.2,7.8,3.9,14,4.9
	l8.5,1.2c12.1,2.2,21.3,5.4,27.6,9.6c6.3,4.2,9.4,10.9,9.4,20.1c0,9.8-3.7,17.5-11,23c-7.3,5.5-17.2,8.3-29.6,8.3
	c-12.8,0-23.3-2.9-31.5-8.8c-8.2-5.9-13.2-14.4-14.9-25.7l17.8-4.4c2.7,16,12.2,24,28.7,24c6.9,0,12.3-1.4,16.3-4.1
	c4-2.8,6-6.4,6-11c0-4.2-1.8-7.4-5.3-9.6c-3.5-2.2-8.9-3.9-16.2-5.1l-8.5-1.4c-10.8-1.9-19.2-5.1-25.4-9.7
	c-6.1-4.6-9.2-11.1-9.2-19.6C1837.2,463.2,1840.6,456,1847.5,450.8z"/>
<path class="st0" d="M253.2,489.7h-7.1c-18.4,38.8-54.6,58.2-108.5,58.2c-27,0-50.8-6.3-71.6-18.8c-20.8-12.5-36.9-29.9-48.2-52.1
	c-11.3-22.2-17-47.8-17-76.6v-210H90V396c0,26.5,6.4,46.3,19.2,59.6c12.8,13.2,31.4,19.9,56,19.9c27.4,0,48.7-9.1,63.8-27.3
	c15.1-18.2,22.7-43.6,22.7-76.3V190.3h89.4v351.8h-88V489.7z"/>
<path class="st0" d="M682.2,212c25.1-19.2,58.9-28.7,101.4-28.7c38.3,0,70.2,8.6,95.8,25.9c25.5,17.3,42.8,40.6,51.8,69.9
	l-80.9,24.8c-7.6-35-29.8-52.5-66.7-52.5c-17,0-30,3.1-39,9.2c-9,6.2-13.5,14.7-13.5,25.5c0,11.3,4.6,20,13.8,25.9
	c9.2,5.9,23.5,10.8,42.9,14.5l18.4,3.5c30.7,6.2,55.8,13,75.2,20.6c19.4,7.6,34.9,18.4,46.5,32.6c11.6,14.2,17.4,32.9,17.4,56
	c0,36.4-13.2,64.8-39.7,85.1c-26.5,20.3-62.4,30.5-107.8,30.5c-46.3,0-84.1-9.9-113.1-29.8S638,476.9,631.8,440l82.3-21.3
	c8,45.4,35.9,68.1,83.7,68.1c19.9,0,35-3.8,45.4-11.4c10.4-7.6,15.6-17.3,15.6-29.1c0-10.9-5-19.5-14.9-25.9
	c-9.9-6.4-26.2-11.7-48.9-16l-18.4-3.6c-42.1-8-74.6-20.2-97.5-36.5c-22.9-16.3-34.4-40.5-34.4-72.7
	C644.6,257.7,657.1,231.1,682.2,212z"/>
<g>
</g>
<g>
</g>
<g>
</g>
<g>
</g>
<g>
</g>
<g>
</g>
<g>
</g>
<g>
</g>
<g>
</g>
<g>
</g>
<g>
</g>
<g>
</g>
<g>
</g>
<g>
</g>
<g>
</g>
</svg>
